<?xml version="1.0" encoding="utf-8"?>
<!-- Generator: Adobe Illustrator 26.0.2, SVG Export Plug-In . SVG Version: 6.00 Build 0)  -->
<svg version="1.1" id="Camada_1" xmlns="http://www.w3.org/2000/svg" xmlns:xlink="http://www.w3.org/1999/xlink" x="0px" y="0px"
	 viewBox="0 0 312.6 57.1" style="enable-background:new 0 0 312.6 57.1;" xml:space="preserve">
<style type="text/css">
	.st0{fill:#35A8E0;}
</style>
<g>
	<g>
		<path d="M12.6,0c0.9,0,1.7,0.1,2.4,0.2c0.7,0.1,1.3,0.4,1.8,0.7c0.5,0.4,1,0.8,1.4,1.5C18.6,3,19,3.8,19.4,4.8l13.3,30.6
			c0.2,0.4,0.5,0.6,0.9,0.6h0.8c0.4,0,0.7-0.2,0.9-0.6L48.5,4.8c0.4-1,0.8-1.8,1.2-2.5c0.4-0.6,0.9-1.1,1.4-1.5
			c0.5-0.4,1.1-0.6,1.8-0.7C53.5,0.1,54.3,0,55.3,0h6.8c2.2,0,3.7,0.5,4.5,1.5c0.8,1,1.1,2.7,1.1,5.1v36.6c0,0.9-0.5,1.4-1.5,1.4
			h-6.5c-0.9,0-1.4-0.5-1.4-1.4V9.9c0-0.4-0.2-0.6-0.5-0.6h-0.6c-0.4,0-0.7,0.2-0.8,0.5L43.5,38.4c-0.5,1.1-1,2.1-1.6,2.9
			c-0.5,0.8-1.1,1.4-1.7,1.9c-0.6,0.5-1.3,0.9-2.1,1.1c-0.8,0.2-1.7,0.3-2.8,0.3h-3.1c-1.1,0-2-0.1-2.8-0.3
			c-0.8-0.2-1.5-0.6-2.1-1.1c-0.6-0.5-1.2-1.2-1.7-1.9c-0.5-0.8-1.1-1.8-1.6-2.9L11.3,9.8c-0.1-0.3-0.4-0.5-0.8-0.5H9.9
			c-0.3,0-0.5,0.2-0.5,0.6v33.3c0,0.9-0.5,1.4-1.4,1.4H1.5c-1,0-1.5-0.5-1.5-1.4V6.6c0-2.4,0.4-4.1,1.1-5.1C1.9,0.5,3.4,0,5.7,0
			H12.6z"/>
		<path d="M105,9.6c2.8,0,5.2,0.2,7.2,0.7c2,0.5,3.5,1.3,4.7,2.3c1.2,1,2,2.4,2.5,4c0.5,1.6,0.8,3.6,0.8,5.9v17c0,1-0.1,1.9-0.2,2.5
			c-0.1,0.7-0.4,1.2-0.8,1.6c-0.4,0.4-0.8,0.6-1.4,0.8c-0.6,0.1-1.4,0.2-2.3,0.2H85.1c-1.9,0-3.4-0.2-4.7-0.5
			c-1.3-0.4-2.3-0.9-3-1.6c-0.8-0.7-1.3-1.7-1.6-2.8c-0.3-1.1-0.5-2.5-0.5-4.1v-3.1c0-1.3,0.2-2.5,0.5-3.5c0.3-1,0.9-1.9,1.6-2.6
			c0.8-0.7,1.8-1.3,3-1.6c1.3-0.4,2.8-0.5,4.7-0.5H111v-1.2c0-1-0.1-1.9-0.3-2.6c-0.2-0.7-0.6-1.3-1.1-1.8c-0.5-0.4-1.2-0.8-2.1-1
			c-0.9-0.2-2-0.3-3.4-0.3H77.5c-0.8,0-1.1-0.4-1.1-1.1v-5.4c0-0.8,0.4-1.1,1.1-1.1H105z M109.2,37.6c0.7,0,1.2-0.2,1.4-0.5
			c0.3-0.3,0.4-0.9,0.4-1.7v-5.6H87.7c-1.3,0-2.2,0.3-2.8,0.8c-0.5,0.5-0.8,1.3-0.8,2.3v1.3c0,1.1,0.3,2,0.8,2.5
			c0.5,0.5,1.5,0.8,2.8,0.8H109.2z"/>
		<path d="M215.6,9.6c1.5,0,2.6,0.3,3.3,1c0.7,0.7,1.1,1.7,1.1,3v4.7c0,0.7,0,1.2-0.1,1.7c-0.1,0.4-0.2,0.8-0.4,1.2
			c-0.2,0.3-0.5,0.6-0.9,0.9c-0.4,0.3-0.9,0.5-1.4,0.8l-28.3,12.4c-0.2,0.1-0.4,0.2-0.4,0.4c-0.1,0.1-0.1,0.3-0.1,0.5v0.4
			c0,0.3,0.2,0.4,0.6,0.4h29.6c0.8,0,1.1,0.4,1.1,1.1v5.2c0,0.8-0.4,1.1-1.1,1.1h-35.2c-1.5,0-2.6-0.3-3.3-1c-0.7-0.6-1.1-1.6-1.1-3
			v-4.7c0-1.3,0.2-2.3,0.6-2.9c0.4-0.6,1.1-1.2,2.3-1.7l28.3-12.4c0.3-0.1,0.5-0.4,0.5-0.8v-0.4c0-0.3-0.2-0.5-0.6-0.5h-29.6
			c-0.8,0-1.1-0.4-1.1-1.1v-5.2c0-0.8,0.4-1.1,1.1-1.1H215.6z"/>
		<path d="M260.8,9.6c2.2,0,4,0.2,5.4,0.5c1.4,0.4,2.5,1,3.4,1.8c0.8,0.8,1.4,1.9,1.8,3.2c0.3,1.3,0.5,3,0.5,4.9v6.1
			c0,1.4-0.3,2.3-0.9,2.8c-0.6,0.5-1.5,0.8-2.7,0.8H236v1.5c0,2,0.5,3.4,1.4,4.3c1,0.9,2.8,1.3,5.6,1.3h26.6c0.8,0,1.1,0.4,1.1,1.1
			v5.4c0,0.8-0.4,1.1-1.1,1.1h-27.5c-2.9,0-5.3-0.2-7.2-0.7c-1.9-0.5-3.5-1.2-4.7-2.3c-1.2-1-2-2.4-2.5-4c-0.5-1.6-0.8-3.6-0.8-5.9
			v-9.2c0-2.3,0.3-4.3,0.8-5.9c0.5-1.6,1.3-3,2.5-4c1.2-1,2.7-1.8,4.7-2.3c1.9-0.5,4.3-0.7,7.2-0.7H260.8z M236,24.1h25.8
			c0.7,0,1.1-0.4,1.1-1.1v-2.7c0-1.3-0.3-2.3-0.8-2.8c-0.6-0.6-1.6-0.8-3.1-0.8h-16c-2.8,0-4.6,0.4-5.6,1.3c-1,0.9-1.4,2.3-1.4,4.4
			V24.1z"/>
		<path d="M311.5,9.6c0.8,0,1.1,0.4,1.1,1.1v5.4c0,0.8-0.4,1.1-1.1,1.1h-17c-1.4,0-2.5,0.1-3.4,0.4c-0.9,0.2-1.6,0.6-2.1,1.1
			c-0.5,0.5-0.9,1.3-1.1,2.2c-0.2,0.9-0.3,2-0.3,3.3v18.9c0,0.9-0.5,1.4-1.4,1.4h-6.2c-1,0-1.5-0.5-1.5-1.4V22.6
			c0-2.3,0.3-4.3,0.8-5.9c0.5-1.6,1.3-3,2.5-4c1.2-1,2.7-1.8,4.7-2.3c1.9-0.5,4.3-0.7,7.2-0.7H311.5z"/>
		<path class="st0" d="M171.1,16.7c-0.5-1.6-1.3-3-2.5-4c-1.2-1-2.7-1.8-4.7-2.3c-1.8-0.4-4-0.7-6.5-0.7c0,0,0,0-0.1,0h-0.6h-12.8
			h-1.7c-2.9,0-5.3,0.2-7.2,0.7c-1.9,0.5-3.5,1.3-4.7,2.3c-1.2,1-2,2.4-2.5,4c-0.5,1.6-0.8,3.6-0.8,5.9v0.8v8.3v18.2v3.2v2.4
			c0,0.9,0,1.4,1,1.4l2.3,0c0.5,0,1,0.1,1.9-1.4c0,0,3.5-6.4,4-7.4c0.5-0.9,0.8-1.5,1.4-2.1c0.5-0.5,1.2-0.9,2.1-1.1
			c0.9-0.2,2-0.3,3.3-0.3h10.9h2.8c2.9,0,5.3-0.2,7.2-0.7c1.9-0.5,3.5-1.3,4.7-2.3c1.2-1,2-2.4,2.5-4c0.5-1.6,0.8-3.6,0.8-5.9v-0.9
			v-7.5v-0.8C171.9,20.3,171.6,18.3,171.1,16.7z M161.3,35.5c-0.5,0.5-1.2,0.9-2.1,1.1c-0.9,0.2-2,0.4-3.4,0.4h-1.9c0,0,0,0,0,0H143
			c-1.3,0-2.4-0.1-3.3-0.3c-0.9-0.2-1.6-0.6-2.1-1.1c-0.5-0.5-0.9-1.3-1.1-2.2c-0.2-0.9-0.3-2-0.3-3.3v-5.7c0-1.3,0.1-2.4,0.3-3.3
			c0.2-0.9,0.6-1.6,1.1-2.2c0.5-0.5,1.2-0.9,2.1-1.1c0.9-0.2,2-0.4,3.4-0.4h0.8h11.9c1.4,0,2.5,0.1,3.4,0.4c0.9,0.2,1.6,0.6,2.1,1.1
			c0.5,0.5,0.9,1.3,1.1,2.2c0.2,0.9,0.3,2,0.3,3.3V30c0,1.3-0.1,2.4-0.3,3.3C162.2,34.2,161.9,34.9,161.3,35.5z"/>
	</g>
</g>
</svg>
